<svg width="421" height="418" viewBox="0 0 421 418" fill="none" xmlns="http://www.w3.org/2000/svg">
<rect width="421" height="418" fill="#313131"/>
<g clip-path="url(#clip0_7_8)">
<rect width="1440" height="1024" transform="translate(-780 -287)" fill="#FAFAFA"/>
<g filter="url(#filter0_f_7_8)">
<circle cx="227.5" cy="-51.5" r="101.5" fill="#F63D68"/>
</g>
<g clip-path="url(#clip1_7_8)">
<rect x="0.5" y="-18.5" width="59" height="60" fill="white"/>
<rect x="60.5" y="-18.5" width="59" height="60" fill="white"/>
<rect x="120.5" y="-18.5" width="59" height="60" fill="white"/>
<rect x="180.5" y="-18.5" width="59" height="60" fill="white"/>
<rect x="240.5" y="-18.5" width="59" height="60" fill="white"/>
<rect x="300.5" y="-18.5" width="59" height="60" fill="white"/>
<rect x="360.5" y="-18.5" width="59" height="60" fill="white"/>
<rect x="420.5" y="-18.5" width="59" height="60" fill="white"/>
<rect x="0.5" y="42.5" width="59" height="60" fill="white"/>
<rect x="60.5" y="42.5" width="59" height="60" fill="white"/>
<rect x="120.5" y="42.5" width="59" height="60" fill="white"/>
<rect x="180.5" y="42.5" width="59" height="60" fill="white"/>
<rect x="240.5" y="42.5" width="59" height="60" fill="white"/>
<rect x="300.5" y="42.5" width="59" height="60" fill="white"/>
<rect x="360.5" y="42.5" width="59" height="60" fill="white"/>
<rect x="420.5" y="42.5" width="59" height="60" fill="white"/>
<rect x="0.5" y="103.5" width="59" height="60" fill="white"/>
<rect x="60.5" y="103.5" width="59" height="60" fill="white"/>
<rect x="120.5" y="103.5" width="59" height="60" fill="white"/>
<rect x="180.5" y="103.5" width="59" height="60" fill="white"/>
<rect x="240.5" y="103.5" width="59" height="60" fill="white"/>
<rect x="300.5" y="103.5" width="59" height="60" fill="white"/>
<rect x="360.5" y="103.5" width="59" height="60" fill="white"/>
<rect x="420.5" y="103.5" width="59" height="60" fill="white"/>
<rect x="0.5" y="164.5" width="59" height="60" fill="white"/>
<rect x="60.5" y="164.5" width="59" height="60" fill="white"/>
<rect x="120.5" y="164.5" width="59" height="60" fill="white"/>
<rect x="180.5" y="164.5" width="59" height="60" fill="white"/>
<rect x="240.5" y="164.5" width="59" height="60" fill="white"/>
<rect x="300.5" y="164.5" width="59" height="60" fill="white"/>
<rect x="360.5" y="164.5" width="59" height="60" fill="white"/>
<rect x="420.5" y="164.5" width="59" height="60" fill="white"/>
<rect x="0.5" y="225.5" width="59" height="60" fill="white"/>
<rect x="60.5" y="225.5" width="59" height="60" fill="white"/>
<rect x="120.5" y="225.5" width="59" height="60" fill="white"/>
<rect x="180.5" y="225.5" width="59" height="60" fill="white"/>
<rect x="240.5" y="225.5" width="59" height="60" fill="white"/>
<rect x="300.5" y="225.5" width="59" height="60" fill="white"/>
<rect x="360.5" y="225.5" width="59" height="60" fill="white"/>
<rect x="420.5" y="225.5" width="59" height="60" fill="white"/>
<rect x="0.5" y="286.5" width="59" height="60" fill="white"/>
<rect x="60.5" y="286.5" width="59" height="60" fill="white"/>
<rect x="120.5" y="286.5" width="59" height="60" fill="white"/>
<rect x="180.5" y="286.5" width="59" height="60" fill="white"/>
<rect x="240.5" y="286.5" width="59" height="60" fill="white"/>
<rect x="300.5" y="286.5" width="59" height="60" fill="white"/>
<rect x="360.5" y="286.5" width="59" height="60" fill="white"/>
<rect x="420.5" y="286.5" width="59" height="60" fill="white"/>
<rect x="0.5" y="347.5" width="59" height="60" fill="white"/>
<rect x="60.5" y="347.5" width="59" height="60" fill="white"/>
<rect x="120.5" y="347.5" width="59" height="60" fill="white"/>
<rect x="180.5" y="347.5" width="59" height="60" fill="white"/>
<rect x="240.5" y="347.5" width="59" height="60" fill="white"/>
<rect x="300.5" y="347.5" width="59" height="60" fill="white"/>
<rect x="360.5" y="347.5" width="59" height="60" fill="white"/>
<rect x="420.5" y="347.5" width="59" height="60" fill="white"/>
<rect x="0.5" y="408.5" width="59" height="60" fill="white"/>
<rect x="60.5" y="408.5" width="59" height="60" fill="white"/>
<rect x="120.5" y="408.5" width="59" height="60" fill="white"/>
<rect x="180.5" y="408.5" width="59" height="60" fill="white"/>
<rect x="240.5" y="408.5" width="59" height="60" fill="white"/>
<rect x="300.5" y="408.5" width="59" height="60" fill="white"/>
<rect x="360.5" y="408.5" width="59" height="60" fill="white"/>
<rect x="420.5" y="408.5" width="59" height="60" fill="white"/>
</g>
<path d="M35.4512 242.407C35.4512 339.266 113.639 417.454 210.498 417.454C307.357 417.454 385.545 339.266 385.545 242.407C385.545 145.548 307.357 67.3604 210.498 67.3604C113.639 67.3604 35.4512 145.548 35.4512 242.407Z" fill="#3D3D3D"/>
<path d="M306.775 150.799C306.775 208.565 385.546 208.565 385.546 150.799C385.546 108.788 346.453 67.3604 346.453 67.3604C346.453 67.3604 306.775 108.788 306.775 150.799Z" fill="#F0F0F0"/>
<path d="M277.608 294.921C293.721 294.921 306.783 281.859 306.783 265.747C306.783 249.634 293.721 236.572 277.608 236.572C261.495 236.572 248.434 249.634 248.434 265.747C248.434 281.859 261.495 294.921 277.608 294.921Z" fill="white"/>
<path d="M143.405 294.921C159.518 294.921 172.579 281.859 172.579 265.747C172.579 249.634 159.518 236.572 143.405 236.572C127.292 236.572 114.23 249.634 114.23 265.747C114.23 281.859 127.292 294.921 143.405 294.921Z" fill="white"/>
<path d="M173.154 183.474C154.482 199.228 129.392 206.23 104.885 201.562C101.384 200.978 98.4669 213.232 102.551 214.399C130.559 219.65 159.733 211.481 181.322 193.393C184.24 190.476 175.488 181.14 173.154 183.474ZM316.108 200.978C291.602 205.063 266.512 198.644 247.84 182.89C245.506 180.556 236.17 189.892 239.671 192.81C261.26 211.481 290.435 219.067 318.442 213.815C322.527 212.648 319.609 200.395 316.108 200.978Z" fill="#D92D20"/>
<path d="M257.173 359.108H163.814C155.062 359.108 155.062 335.769 163.814 335.769H257.173C265.925 335.769 265.925 359.108 257.173 359.108Z" fill="white"/>
<path d="M77.5002 29C75.0004 35.5 85.5 44.3162 93.9495 44.3162C119.461 44.3162 123.198 54.5089 123.198 76.6668" stroke="#525252" stroke-width="8.86316" stroke-linecap="round"/>
<path d="M186.127 12.8516C182.434 16.3968 175.846 25.0827 179.037 31.4642C183.025 39.441 191.444 44.7589 188.785 58.4968" stroke="#525252" stroke-width="8.86316" stroke-linecap="round"/>
<path d="M269.44 4.43164C264.86 6.94287 256.677 16.7514 260.576 35.8959C265.451 59.8264 248.611 55.838 248.168 58.9401" stroke="#525252" stroke-width="8.86316" stroke-linecap="round"/>
<path d="M332.811 16.3975C338.277 24.0789 345.131 41.7461 328.823 50.9638C308.438 62.4859 300.018 67.3606 300.018 76.2238" stroke="#525252" stroke-width="8.86316" stroke-linecap="round"/>
</g>
<defs>
<filter id="filter0_f_7_8" x="-182" y="-461" width="819" height="819" filterUnits="userSpaceOnUse" color-interpolation-filters="sRGB">
<feFlood flood-opacity="0" result="BackgroundImageFix"/>
<feBlend mode="normal" in="SourceGraphic" in2="BackgroundImageFix" result="shape"/>
<feGaussianBlur stdDeviation="154" result="effect1_foregroundBlur_7_8"/>
</filter>
<clipPath id="clip0_7_8">
<rect width="1440" height="1024" fill="white" transform="translate(-780 -287)"/>
</clipPath>
<clipPath id="clip1_7_8">
<rect width="1440" height="1024" fill="white" transform="translate(-780 -287)"/>
</clipPath>
</defs>
</svg>
