<svg width="24" height="24" viewBox="0 0 24 24" fill="none" xmlns="http://www.w3.org/2000/svg">
<rect width="24" height="24" rx="2" fill="white"/>
<path d="M8.66262 19.3121C15.4534 19.3121 19.1687 13.6846 19.1687 8.80597C19.1687 8.64777 19.1652 8.48605 19.1582 8.32784C19.8809 7.80517 20.5046 7.15776 21 6.41605C20.3269 6.71552 19.6122 6.91111 18.8804 6.99612C19.651 6.53425 20.2279 5.80868 20.5043 4.9539C19.7794 5.38349 18.9867 5.68653 18.1601 5.85003C17.6031 5.25824 16.8667 4.86641 16.0648 4.73511C15.2628 4.60381 14.4399 4.74036 13.7233 5.12365C13.0067 5.50693 12.4363 6.1156 12.1004 6.85556C11.7644 7.59551 11.6816 8.42553 11.8646 9.2173C10.3969 9.14364 8.96095 8.76235 7.64999 8.09815C6.33902 7.43394 5.18227 6.50165 4.25473 5.36171C3.7833 6.17451 3.63904 7.13631 3.85127 8.05164C4.0635 8.96698 4.6163 9.76716 5.3973 10.2896C4.81097 10.2709 4.23748 10.1131 3.72422 9.82901V9.87472C3.72369 10.7277 4.01857 11.5545 4.55873 12.2147C5.09889 12.8748 5.85099 13.3275 6.68719 13.4958C6.14404 13.6444 5.57399 13.6661 5.02113 13.5591C5.25709 14.2927 5.71618 14.9342 6.33433 15.3943C6.95248 15.8544 7.69884 16.11 8.46926 16.1255C7.16132 17.1529 5.54563 17.7102 3.88242 17.7075C3.58747 17.7071 3.2928 17.689 3 17.6534C4.68964 18.7374 6.65515 19.3131 8.66262 19.3121Z" fill="black"/>
</svg>
