<svg width="1920" height="1093" viewBox="0 0 1920 1093" fill="none" xmlns="http://www.w3.org/2000/svg">
<g clip-path="url(#clip0_1316_32675)">
<rect x="0.5" y="-2" width="59" height="60" fill="white"/>
<rect x="60.5" y="-2" width="59" height="60" fill="white"/>
<rect x="120.5" y="-2" width="59" height="60" fill="white"/>
<rect x="180.5" y="-2" width="59" height="60" fill="white"/>
<rect x="240.5" y="-2" width="59" height="60" fill="white"/>
<rect x="300.5" y="-2" width="59" height="60" fill="white"/>
<rect x="360.5" y="-2" width="59" height="60" fill="white"/>
<rect x="420.5" y="-2" width="59" height="60" fill="white"/>
<rect x="480.5" y="-2" width="59" height="60" fill="white"/>
<rect x="540.5" y="-2" width="59" height="60" fill="white"/>
<rect x="600.5" y="-2" width="59" height="60" fill="white"/>
<rect x="660.5" y="-2" width="59" height="60" fill="white"/>
<rect x="720.5" y="-2" width="59" height="60" fill="white"/>
<rect x="780.5" y="-2" width="59" height="60" fill="white"/>
<rect x="840.5" y="-2" width="59" height="60" fill="white"/>
<rect x="900.5" y="-2" width="59" height="60" fill="white"/>
<rect x="960.5" y="-2" width="59" height="60" fill="white"/>
<rect x="1020.5" y="-2" width="59" height="60" fill="white"/>
<rect x="1080.5" y="-2" width="59" height="60" fill="white"/>
<rect x="1140.5" y="-2" width="59" height="60" fill="white"/>
<rect x="1200.5" y="-2" width="59" height="60" fill="white"/>
<rect x="1260.5" y="-2" width="59" height="60" fill="white"/>
<rect x="1320.5" y="-2" width="59" height="60" fill="white"/>
<rect x="1380.5" y="-2" width="59" height="60" fill="white"/>
<rect x="1440.5" y="-2" width="59" height="60" fill="white"/>
<rect x="1500.5" y="-2" width="59" height="60" fill="white"/>
<rect x="1560.5" y="-2" width="59" height="60" fill="white"/>
<rect x="1620.5" y="-2" width="59" height="60" fill="white"/>
<rect x="1680.5" y="-2" width="59" height="60" fill="white"/>
<rect x="1740.5" y="-2" width="59" height="60" fill="white"/>
<rect x="1800.5" y="-2" width="59" height="60" fill="white"/>
<rect x="1860.5" y="-2" width="59" height="60" fill="white"/>
<rect x="0.5" y="59" width="59" height="60" fill="white"/>
<rect x="60.5" y="59" width="59" height="60" fill="white"/>
<rect x="120.5" y="59" width="59" height="60" fill="white"/>
<rect x="180.5" y="59" width="59" height="60" fill="white"/>
<rect x="240.5" y="59" width="59" height="60" fill="white"/>
<rect x="300.5" y="59" width="59" height="60" fill="white"/>
<rect x="360.5" y="59" width="59" height="60" fill="white"/>
<rect x="420.5" y="59" width="59" height="60" fill="white"/>
<rect x="480.5" y="59" width="59" height="60" fill="white"/>
<rect x="540.5" y="59" width="59" height="60" fill="white"/>
<rect x="600.5" y="59" width="59" height="60" fill="white"/>
<rect x="660.5" y="59" width="59" height="60" fill="white"/>
<rect x="720.5" y="59" width="59" height="60" fill="white"/>
<rect x="780.5" y="59" width="59" height="60" fill="white"/>
<rect x="840.5" y="59" width="59" height="60" fill="white"/>
<rect x="900.5" y="59" width="59" height="60" fill="white"/>
<rect x="960.5" y="59" width="59" height="60" fill="white"/>
<rect x="1020.5" y="59" width="59" height="60" fill="white"/>
<rect x="1080.5" y="59" width="59" height="60" fill="white"/>
<rect x="1140.5" y="59" width="59" height="60" fill="white"/>
<rect x="1200.5" y="59" width="59" height="60" fill="white"/>
<rect x="1260.5" y="59" width="59" height="60" fill="white"/>
<rect x="1320.5" y="59" width="59" height="60" fill="white"/>
<rect x="1380.5" y="59" width="59" height="60" fill="white"/>
<rect x="1440.5" y="59" width="59" height="60" fill="white"/>
<rect x="1500.5" y="59" width="59" height="60" fill="white"/>
<rect x="1560.5" y="59" width="59" height="60" fill="white"/>
<rect x="1620.5" y="59" width="59" height="60" fill="white"/>
<rect x="1680.5" y="59" width="59" height="60" fill="white"/>
<rect x="1740.5" y="59" width="59" height="60" fill="white"/>
<rect x="1800.5" y="59" width="59" height="60" fill="white"/>
<rect x="1860.5" y="59" width="59" height="60" fill="white"/>
<rect x="0.5" y="120" width="59" height="60" fill="white"/>
<rect x="60.5" y="120" width="59" height="60" fill="white"/>
<rect x="120.5" y="120" width="59" height="60" fill="white"/>
<rect x="180.5" y="120" width="59" height="60" fill="white"/>
<rect x="240.5" y="120" width="59" height="60" fill="white"/>
<rect x="300.5" y="120" width="59" height="60" fill="white"/>
<rect x="360.5" y="120" width="59" height="60" fill="white"/>
<rect x="420.5" y="120" width="59" height="60" fill="white"/>
<rect x="480.5" y="120" width="59" height="60" fill="white"/>
<rect x="540.5" y="120" width="59" height="60" fill="white"/>
<rect x="600.5" y="120" width="59" height="60" fill="white"/>
<rect x="660.5" y="120" width="59" height="60" fill="white"/>
<rect x="720.5" y="120" width="59" height="60" fill="white"/>
<rect x="780.5" y="120" width="59" height="60" fill="white"/>
<rect x="840.5" y="120" width="59" height="60" fill="white"/>
<rect x="900.5" y="120" width="59" height="60" fill="white"/>
<rect x="960.5" y="120" width="59" height="60" fill="white"/>
<rect x="1020.5" y="120" width="59" height="60" fill="white"/>
<rect x="1080.5" y="120" width="59" height="60" fill="white"/>
<rect x="1140.5" y="120" width="59" height="60" fill="white"/>
<rect x="1200.5" y="120" width="59" height="60" fill="white"/>
<rect x="1260.5" y="120" width="59" height="60" fill="white"/>
<rect x="1320.5" y="120" width="59" height="60" fill="white"/>
<rect x="1380.5" y="120" width="59" height="60" fill="white"/>
<rect x="1440.5" y="120" width="59" height="60" fill="white"/>
<rect x="1500.5" y="120" width="59" height="60" fill="white"/>
<rect x="1560.5" y="120" width="59" height="60" fill="white"/>
<rect x="1620.5" y="120" width="59" height="60" fill="white"/>
<rect x="1680.5" y="120" width="59" height="60" fill="white"/>
<rect x="1740.5" y="120" width="59" height="60" fill="white"/>
<rect x="1800.5" y="120" width="59" height="60" fill="white"/>
<rect x="1860.5" y="120" width="59" height="60" fill="white"/>
<rect x="0.5" y="181" width="59" height="60" fill="white"/>
<rect x="60.5" y="181" width="59" height="60" fill="white"/>
<rect x="120.5" y="181" width="59" height="60" fill="white"/>
<rect x="180.5" y="181" width="59" height="60" fill="white"/>
<rect x="240.5" y="181" width="59" height="60" fill="white"/>
<rect x="300.5" y="181" width="59" height="60" fill="white"/>
<rect x="360.5" y="181" width="59" height="60" fill="white"/>
<rect x="420.5" y="181" width="59" height="60" fill="white"/>
<rect x="480.5" y="181" width="59" height="60" fill="white"/>
<rect x="540.5" y="181" width="59" height="60" fill="white"/>
<rect x="600.5" y="181" width="59" height="60" fill="white"/>
<rect x="660.5" y="181" width="59" height="60" fill="white"/>
<rect x="720.5" y="181" width="59" height="60" fill="white"/>
<rect x="780.5" y="181" width="59" height="60" fill="white"/>
<rect x="840.5" y="181" width="59" height="60" fill="white"/>
<rect x="900.5" y="181" width="59" height="60" fill="white"/>
<rect x="960.5" y="181" width="59" height="60" fill="white"/>
<rect x="1020.5" y="181" width="59" height="60" fill="white"/>
<rect x="1080.5" y="181" width="59" height="60" fill="white"/>
<rect x="1140.5" y="181" width="59" height="60" fill="white"/>
<rect x="1200.5" y="181" width="59" height="60" fill="white"/>
<rect x="1260.5" y="181" width="59" height="60" fill="white"/>
<rect x="1320.5" y="181" width="59" height="60" fill="white"/>
<rect x="1380.5" y="181" width="59" height="60" fill="white"/>
<rect x="1440.5" y="181" width="59" height="60" fill="white"/>
<rect x="1500.5" y="181" width="59" height="60" fill="white"/>
<rect x="1560.5" y="181" width="59" height="60" fill="white"/>
<rect x="1620.5" y="181" width="59" height="60" fill="white"/>
<rect x="1680.5" y="181" width="59" height="60" fill="white"/>
<rect x="1740.5" y="181" width="59" height="60" fill="white"/>
<rect x="1800.5" y="181" width="59" height="60" fill="white"/>
<rect x="1860.5" y="181" width="59" height="60" fill="white"/>
<rect x="0.5" y="242" width="59" height="60" fill="white"/>
<rect x="60.5" y="242" width="59" height="60" fill="white"/>
<rect x="120.5" y="242" width="59" height="60" fill="white"/>
<rect x="180.5" y="242" width="59" height="60" fill="white"/>
<rect x="240.5" y="242" width="59" height="60" fill="white"/>
<rect x="300.5" y="242" width="59" height="60" fill="white"/>
<rect x="360.5" y="242" width="59" height="60" fill="white"/>
<rect x="420.5" y="242" width="59" height="60" fill="white"/>
<rect x="480.5" y="242" width="59" height="60" fill="white"/>
<rect x="540.5" y="242" width="59" height="60" fill="white"/>
<rect x="600.5" y="242" width="59" height="60" fill="white"/>
<rect x="660.5" y="242" width="59" height="60" fill="white"/>
<rect x="720.5" y="242" width="59" height="60" fill="white"/>
<rect x="780.5" y="242" width="59" height="60" fill="white"/>
<rect x="840.5" y="242" width="59" height="60" fill="white"/>
<rect x="900.5" y="242" width="59" height="60" fill="white"/>
<rect x="960.5" y="242" width="59" height="60" fill="white"/>
<rect x="1020.5" y="242" width="59" height="60" fill="white"/>
<rect x="1080.5" y="242" width="59" height="60" fill="white"/>
<rect x="1140.5" y="242" width="59" height="60" fill="white"/>
<rect x="1200.5" y="242" width="59" height="60" fill="white"/>
<rect x="1260.5" y="242" width="59" height="60" fill="white"/>
<rect x="1320.5" y="242" width="59" height="60" fill="white"/>
<rect x="1380.5" y="242" width="59" height="60" fill="white"/>
<rect x="1440.5" y="242" width="59" height="60" fill="white"/>
<rect x="1500.5" y="242" width="59" height="60" fill="white"/>
<rect x="1560.5" y="242" width="59" height="60" fill="white"/>
<rect x="1620.5" y="242" width="59" height="60" fill="white"/>
<rect x="1680.5" y="242" width="59" height="60" fill="white"/>
<rect x="1740.5" y="242" width="59" height="60" fill="white"/>
<rect x="1800.5" y="242" width="59" height="60" fill="white"/>
<rect x="1860.5" y="242" width="59" height="60" fill="white"/>
<rect x="0.5" y="303" width="59" height="60" fill="white"/>
<rect x="60.5" y="303" width="59" height="60" fill="white"/>
<rect x="120.5" y="303" width="59" height="60" fill="white"/>
<rect x="180.5" y="303" width="59" height="60" fill="white"/>
<rect x="240.5" y="303" width="59" height="60" fill="white"/>
<rect x="300.5" y="303" width="59" height="60" fill="white"/>
<rect x="360.5" y="303" width="59" height="60" fill="white"/>
<rect x="420.5" y="303" width="59" height="60" fill="white"/>
<rect x="480.5" y="303" width="59" height="60" fill="white"/>
<rect x="540.5" y="303" width="59" height="60" fill="white"/>
<rect x="600.5" y="303" width="59" height="60" fill="white"/>
<rect x="660.5" y="303" width="59" height="60" fill="white"/>
<rect x="720.5" y="303" width="59" height="60" fill="white"/>
<rect x="780.5" y="303" width="59" height="60" fill="white"/>
<rect x="840.5" y="303" width="59" height="60" fill="white"/>
<rect x="900.5" y="303" width="59" height="60" fill="white"/>
<rect x="960.5" y="303" width="59" height="60" fill="white"/>
<rect x="1020.5" y="303" width="59" height="60" fill="white"/>
<rect x="1080.5" y="303" width="59" height="60" fill="white"/>
<rect x="1140.5" y="303" width="59" height="60" fill="white"/>
<rect x="1200.5" y="303" width="59" height="60" fill="white"/>
<rect x="1260.5" y="303" width="59" height="60" fill="white"/>
<rect x="1320.5" y="303" width="59" height="60" fill="white"/>
<rect x="1380.5" y="303" width="59" height="60" fill="white"/>
<rect x="1440.5" y="303" width="59" height="60" fill="white"/>
<rect x="1500.5" y="303" width="59" height="60" fill="white"/>
<rect x="1560.5" y="303" width="59" height="60" fill="white"/>
<rect x="1620.5" y="303" width="59" height="60" fill="white"/>
<rect x="1680.5" y="303" width="59" height="60" fill="white"/>
<rect x="1740.5" y="303" width="59" height="60" fill="white"/>
<rect x="1800.5" y="303" width="59" height="60" fill="white"/>
<rect x="1860.5" y="303" width="59" height="60" fill="white"/>
<rect x="0.5" y="364" width="59" height="60" fill="white"/>
<rect x="60.5" y="364" width="59" height="60" fill="white"/>
<rect x="120.5" y="364" width="59" height="60" fill="white"/>
<rect x="180.5" y="364" width="59" height="60" fill="white"/>
<rect x="240.5" y="364" width="59" height="60" fill="white"/>
<rect x="300.5" y="364" width="59" height="60" fill="white"/>
<rect x="360.5" y="364" width="59" height="60" fill="white"/>
<rect x="420.5" y="364" width="59" height="60" fill="white"/>
<rect x="480.5" y="364" width="59" height="60" fill="white"/>
<rect x="540.5" y="364" width="59" height="60" fill="white"/>
<rect x="600.5" y="364" width="59" height="60" fill="white"/>
<rect x="660.5" y="364" width="59" height="60" fill="white"/>
<rect x="720.5" y="364" width="59" height="60" fill="white"/>
<rect x="780.5" y="364" width="59" height="60" fill="white"/>
<rect x="840.5" y="364" width="59" height="60" fill="white"/>
<rect x="900.5" y="364" width="59" height="60" fill="white"/>
<rect x="960.5" y="364" width="59" height="60" fill="white"/>
<rect x="1020.5" y="364" width="59" height="60" fill="white"/>
<rect x="1080.5" y="364" width="59" height="60" fill="white"/>
<rect x="1140.5" y="364" width="59" height="60" fill="white"/>
<rect x="1200.5" y="364" width="59" height="60" fill="white"/>
<rect x="1260.5" y="364" width="59" height="60" fill="white"/>
<rect x="1320.5" y="364" width="59" height="60" fill="white"/>
<rect x="1380.5" y="364" width="59" height="60" fill="white"/>
<rect x="1440.5" y="364" width="59" height="60" fill="white"/>
<rect x="1500.5" y="364" width="59" height="60" fill="white"/>
<rect x="1560.5" y="364" width="59" height="60" fill="white"/>
<rect x="1620.5" y="364" width="59" height="60" fill="white"/>
<rect x="1680.5" y="364" width="59" height="60" fill="white"/>
<rect x="1740.5" y="364" width="59" height="60" fill="white"/>
<rect x="1800.5" y="364" width="59" height="60" fill="white"/>
<rect x="1860.5" y="364" width="59" height="60" fill="white"/>
<rect x="0.5" y="425" width="59" height="60" fill="white"/>
<rect x="60.5" y="425" width="59" height="60" fill="white"/>
<rect x="120.5" y="425" width="59" height="60" fill="white"/>
<rect x="180.5" y="425" width="59" height="60" fill="white"/>
<rect x="240.5" y="425" width="59" height="60" fill="white"/>
<rect x="300.5" y="425" width="59" height="60" fill="white"/>
<rect x="360.5" y="425" width="59" height="60" fill="white"/>
<rect x="420.5" y="425" width="59" height="60" fill="white"/>
<rect x="480.5" y="425" width="59" height="60" fill="white"/>
<rect x="540.5" y="425" width="59" height="60" fill="white"/>
<rect x="600.5" y="425" width="59" height="60" fill="white"/>
<rect x="660.5" y="425" width="59" height="60" fill="white"/>
<rect x="720.5" y="425" width="59" height="60" fill="white"/>
<rect x="780.5" y="425" width="59" height="60" fill="white"/>
<rect x="840.5" y="425" width="59" height="60" fill="white"/>
<rect x="900.5" y="425" width="59" height="60" fill="white"/>
<rect x="960.5" y="425" width="59" height="60" fill="white"/>
<rect x="1020.5" y="425" width="59" height="60" fill="white"/>
<rect x="1080.5" y="425" width="59" height="60" fill="white"/>
<rect x="1140.5" y="425" width="59" height="60" fill="white"/>
<rect x="1200.5" y="425" width="59" height="60" fill="white"/>
<rect x="1260.5" y="425" width="59" height="60" fill="white"/>
<rect x="1320.5" y="425" width="59" height="60" fill="white"/>
<rect x="1380.5" y="425" width="59" height="60" fill="white"/>
<rect x="1440.5" y="425" width="59" height="60" fill="white"/>
<rect x="1500.5" y="425" width="59" height="60" fill="white"/>
<rect x="1560.5" y="425" width="59" height="60" fill="white"/>
<rect x="1620.5" y="425" width="59" height="60" fill="white"/>
<rect x="1680.5" y="425" width="59" height="60" fill="white"/>
<rect x="1740.5" y="425" width="59" height="60" fill="white"/>
<rect x="1800.5" y="425" width="59" height="60" fill="white"/>
<rect x="1860.5" y="425" width="59" height="60" fill="white"/>
<rect x="0.5" y="486" width="59" height="60" fill="white"/>
<rect x="60.5" y="486" width="59" height="60" fill="white"/>
<rect x="120.5" y="486" width="59" height="60" fill="white"/>
<rect x="180.5" y="486" width="59" height="60" fill="white"/>
<rect x="240.5" y="486" width="59" height="60" fill="white"/>
<rect x="300.5" y="486" width="59" height="60" fill="white"/>
<rect x="360.5" y="486" width="59" height="60" fill="white"/>
<rect x="420.5" y="486" width="59" height="60" fill="white"/>
<rect x="480.5" y="486" width="59" height="60" fill="white"/>
<rect x="540.5" y="486" width="59" height="60" fill="white"/>
<rect x="600.5" y="486" width="59" height="60" fill="white"/>
<rect x="660.5" y="486" width="59" height="60" fill="white"/>
<rect x="720.5" y="486" width="59" height="60" fill="white"/>
<rect x="780.5" y="486" width="59" height="60" fill="white"/>
<rect x="840.5" y="486" width="59" height="60" fill="white"/>
<rect x="900.5" y="486" width="59" height="60" fill="white"/>
<rect x="960.5" y="486" width="59" height="60" fill="white"/>
<rect x="1020.5" y="486" width="59" height="60" fill="white"/>
<rect x="1080.5" y="486" width="59" height="60" fill="white"/>
<rect x="1140.5" y="486" width="59" height="60" fill="white"/>
<rect x="1200.5" y="486" width="59" height="60" fill="white"/>
<rect x="1260.5" y="486" width="59" height="60" fill="white"/>
<rect x="1320.5" y="486" width="59" height="60" fill="white"/>
<rect x="1380.5" y="486" width="59" height="60" fill="white"/>
<rect x="1440.5" y="486" width="59" height="60" fill="white"/>
<rect x="1500.5" y="486" width="59" height="60" fill="white"/>
<rect x="1560.5" y="486" width="59" height="60" fill="white"/>
<rect x="1620.5" y="486" width="59" height="60" fill="white"/>
<rect x="1680.5" y="486" width="59" height="60" fill="white"/>
<rect x="1740.5" y="486" width="59" height="60" fill="white"/>
<rect x="1800.5" y="486" width="59" height="60" fill="white"/>
<rect x="1860.5" y="486" width="59" height="60" fill="white"/>
<rect x="0.5" y="547" width="59" height="60" fill="white"/>
<rect x="60.5" y="547" width="59" height="60" fill="white"/>
<rect x="120.5" y="547" width="59" height="60" fill="white"/>
<rect x="180.5" y="547" width="59" height="60" fill="white"/>
<rect x="240.5" y="547" width="59" height="60" fill="white"/>
<rect x="300.5" y="547" width="59" height="60" fill="white"/>
<rect x="360.5" y="547" width="59" height="60" fill="white"/>
<rect x="420.5" y="547" width="59" height="60" fill="white"/>
<rect x="480.5" y="547" width="59" height="60" fill="white"/>
<rect x="540.5" y="547" width="59" height="60" fill="white"/>
<rect x="600.5" y="547" width="59" height="60" fill="white"/>
<rect x="660.5" y="547" width="59" height="60" fill="white"/>
<rect x="720.5" y="547" width="59" height="60" fill="white"/>
<rect x="780.5" y="547" width="59" height="60" fill="white"/>
<rect x="840.5" y="547" width="59" height="60" fill="white"/>
<rect x="900.5" y="547" width="59" height="60" fill="white"/>
<rect x="960.5" y="547" width="59" height="60" fill="white"/>
<rect x="1020.5" y="547" width="59" height="60" fill="white"/>
<rect x="1080.5" y="547" width="59" height="60" fill="white"/>
<rect x="1140.5" y="547" width="59" height="60" fill="white"/>
<rect x="1200.5" y="547" width="59" height="60" fill="white"/>
<rect x="1260.5" y="547" width="59" height="60" fill="white"/>
<rect x="1320.5" y="547" width="59" height="60" fill="white"/>
<rect x="1380.5" y="547" width="59" height="60" fill="white"/>
<rect x="1440.5" y="547" width="59" height="60" fill="white"/>
<rect x="1500.5" y="547" width="59" height="60" fill="white"/>
<rect x="1560.5" y="547" width="59" height="60" fill="white"/>
<rect x="1620.5" y="547" width="59" height="60" fill="white"/>
<rect x="1680.5" y="547" width="59" height="60" fill="white"/>
<rect x="1740.5" y="547" width="59" height="60" fill="white"/>
<rect x="1800.5" y="547" width="59" height="60" fill="white"/>
<rect x="1860.5" y="547" width="59" height="60" fill="white"/>
<rect x="0.5" y="608" width="59" height="60" fill="white"/>
<rect x="60.5" y="608" width="59" height="60" fill="white"/>
<rect x="120.5" y="608" width="59" height="60" fill="white"/>
<rect x="180.5" y="608" width="59" height="60" fill="white"/>
<rect x="240.5" y="608" width="59" height="60" fill="white"/>
<rect x="300.5" y="608" width="59" height="60" fill="white"/>
<rect x="360.5" y="608" width="59" height="60" fill="white"/>
<rect x="420.5" y="608" width="59" height="60" fill="white"/>
<rect x="480.5" y="608" width="59" height="60" fill="white"/>
<rect x="540.5" y="608" width="59" height="60" fill="white"/>
<rect x="600.5" y="608" width="59" height="60" fill="white"/>
<rect x="660.5" y="608" width="59" height="60" fill="white"/>
<rect x="720.5" y="608" width="59" height="60" fill="white"/>
<rect x="780.5" y="608" width="59" height="60" fill="white"/>
<rect x="840.5" y="608" width="59" height="60" fill="white"/>
<rect x="900.5" y="608" width="59" height="60" fill="white"/>
<rect x="960.5" y="608" width="59" height="60" fill="white"/>
<rect x="1020.5" y="608" width="59" height="60" fill="white"/>
<rect x="1080.5" y="608" width="59" height="60" fill="white"/>
<rect x="1140.5" y="608" width="59" height="60" fill="white"/>
<rect x="1200.5" y="608" width="59" height="60" fill="white"/>
<rect x="1260.5" y="608" width="59" height="60" fill="white"/>
<rect x="1320.5" y="608" width="59" height="60" fill="white"/>
<rect x="1380.5" y="608" width="59" height="60" fill="white"/>
<rect x="1440.5" y="608" width="59" height="60" fill="white"/>
<rect x="1500.5" y="608" width="59" height="60" fill="white"/>
<rect x="1560.5" y="608" width="59" height="60" fill="white"/>
<rect x="1620.5" y="608" width="59" height="60" fill="white"/>
<rect x="1680.5" y="608" width="59" height="60" fill="white"/>
<rect x="1740.5" y="608" width="59" height="60" fill="white"/>
<rect x="1800.5" y="608" width="59" height="60" fill="white"/>
<rect x="1860.5" y="608" width="59" height="60" fill="white"/>
<rect x="0.5" y="669" width="59" height="60" fill="white"/>
<rect x="60.5" y="669" width="59" height="60" fill="white"/>
<rect x="120.5" y="669" width="59" height="60" fill="white"/>
<rect x="180.5" y="669" width="59" height="60" fill="white"/>
<rect x="240.5" y="669" width="59" height="60" fill="white"/>
<rect x="300.5" y="669" width="59" height="60" fill="white"/>
<rect x="360.5" y="669" width="59" height="60" fill="white"/>
<rect x="420.5" y="669" width="59" height="60" fill="white"/>
<rect x="480.5" y="669" width="59" height="60" fill="white"/>
<rect x="540.5" y="669" width="59" height="60" fill="white"/>
<rect x="600.5" y="669" width="59" height="60" fill="white"/>
<rect x="660.5" y="669" width="59" height="60" fill="white"/>
<rect x="720.5" y="669" width="59" height="60" fill="white"/>
<rect x="780.5" y="669" width="59" height="60" fill="white"/>
<rect x="840.5" y="669" width="59" height="60" fill="white"/>
<rect x="900.5" y="669" width="59" height="60" fill="white"/>
<rect x="960.5" y="669" width="59" height="60" fill="white"/>
<rect x="1020.5" y="669" width="59" height="60" fill="white"/>
<rect x="1080.5" y="669" width="59" height="60" fill="white"/>
<rect x="1140.5" y="669" width="59" height="60" fill="white"/>
<rect x="1200.5" y="669" width="59" height="60" fill="white"/>
<rect x="1260.5" y="669" width="59" height="60" fill="white"/>
<rect x="1320.5" y="669" width="59" height="60" fill="white"/>
<rect x="1380.5" y="669" width="59" height="60" fill="white"/>
<rect x="1440.5" y="669" width="59" height="60" fill="white"/>
<rect x="1500.5" y="669" width="59" height="60" fill="white"/>
<rect x="1560.5" y="669" width="59" height="60" fill="white"/>
<rect x="1620.5" y="669" width="59" height="60" fill="white"/>
<rect x="1680.5" y="669" width="59" height="60" fill="white"/>
<rect x="1740.5" y="669" width="59" height="60" fill="white"/>
<rect x="1800.5" y="669" width="59" height="60" fill="white"/>
<rect x="1860.5" y="669" width="59" height="60" fill="white"/>
<rect x="0.5" y="730" width="59" height="60" fill="white"/>
<rect x="60.5" y="730" width="59" height="60" fill="white"/>
<rect x="120.5" y="730" width="59" height="60" fill="white"/>
<rect x="180.5" y="730" width="59" height="60" fill="white"/>
<rect x="240.5" y="730" width="59" height="60" fill="white"/>
<rect x="300.5" y="730" width="59" height="60" fill="white"/>
<rect x="360.5" y="730" width="59" height="60" fill="white"/>
<rect x="420.5" y="730" width="59" height="60" fill="white"/>
<rect x="480.5" y="730" width="59" height="60" fill="white"/>
<rect x="540.5" y="730" width="59" height="60" fill="white"/>
<rect x="600.5" y="730" width="59" height="60" fill="white"/>
<rect x="660.5" y="730" width="59" height="60" fill="white"/>
<rect x="720.5" y="730" width="59" height="60" fill="white"/>
<rect x="780.5" y="730" width="59" height="60" fill="white"/>
<rect x="840.5" y="730" width="59" height="60" fill="white"/>
<rect x="900.5" y="730" width="59" height="60" fill="white"/>
<rect x="960.5" y="730" width="59" height="60" fill="white"/>
<rect x="1020.5" y="730" width="59" height="60" fill="white"/>
<rect x="1080.5" y="730" width="59" height="60" fill="white"/>
<rect x="1140.5" y="730" width="59" height="60" fill="white"/>
<rect x="1200.5" y="730" width="59" height="60" fill="white"/>
<rect x="1260.5" y="730" width="59" height="60" fill="white"/>
<rect x="1320.5" y="730" width="59" height="60" fill="white"/>
<rect x="1380.5" y="730" width="59" height="60" fill="white"/>
<rect x="1440.5" y="730" width="59" height="60" fill="white"/>
<rect x="1500.5" y="730" width="59" height="60" fill="white"/>
<rect x="1560.5" y="730" width="59" height="60" fill="white"/>
<rect x="1620.5" y="730" width="59" height="60" fill="white"/>
<rect x="1680.5" y="730" width="59" height="60" fill="white"/>
<rect x="1740.5" y="730" width="59" height="60" fill="white"/>
<rect x="1800.5" y="730" width="59" height="60" fill="white"/>
<rect x="1860.5" y="730" width="59" height="60" fill="white"/>
<rect x="0.5" y="791" width="59" height="60" fill="white"/>
<rect x="60.5" y="791" width="59" height="60" fill="white"/>
<rect x="120.5" y="791" width="59" height="60" fill="white"/>
<rect x="180.5" y="791" width="59" height="60" fill="white"/>
<rect x="240.5" y="791" width="59" height="60" fill="white"/>
<rect x="300.5" y="791" width="59" height="60" fill="white"/>
<rect x="360.5" y="791" width="59" height="60" fill="white"/>
<rect x="420.5" y="791" width="59" height="60" fill="white"/>
<rect x="480.5" y="791" width="59" height="60" fill="white"/>
<rect x="540.5" y="791" width="59" height="60" fill="white"/>
<rect x="600.5" y="791" width="59" height="60" fill="white"/>
<rect x="660.5" y="791" width="59" height="60" fill="white"/>
<rect x="720.5" y="791" width="59" height="60" fill="white"/>
<rect x="780.5" y="791" width="59" height="60" fill="white"/>
<rect x="840.5" y="791" width="59" height="60" fill="white"/>
<rect x="900.5" y="791" width="59" height="60" fill="white"/>
<rect x="960.5" y="791" width="59" height="60" fill="white"/>
<rect x="1020.5" y="791" width="59" height="60" fill="white"/>
<rect x="1080.5" y="791" width="59" height="60" fill="white"/>
<rect x="1140.5" y="791" width="59" height="60" fill="white"/>
<rect x="1200.5" y="791" width="59" height="60" fill="white"/>
<rect x="1260.5" y="791" width="59" height="60" fill="white"/>
<rect x="1320.5" y="791" width="59" height="60" fill="white"/>
<rect x="1380.5" y="791" width="59" height="60" fill="white"/>
<rect x="1440.5" y="791" width="59" height="60" fill="white"/>
<rect x="1500.5" y="791" width="59" height="60" fill="white"/>
<rect x="1560.5" y="791" width="59" height="60" fill="white"/>
<rect x="1620.5" y="791" width="59" height="60" fill="white"/>
<rect x="1680.5" y="791" width="59" height="60" fill="white"/>
<rect x="1740.5" y="791" width="59" height="60" fill="white"/>
<rect x="1800.5" y="791" width="59" height="60" fill="white"/>
<rect x="1860.5" y="791" width="59" height="60" fill="white"/>
<rect x="0.5" y="852" width="59" height="60" fill="white"/>
<rect x="60.5" y="852" width="59" height="60" fill="white"/>
<rect x="120.5" y="852" width="59" height="60" fill="white"/>
<rect x="180.5" y="852" width="59" height="60" fill="white"/>
<rect x="240.5" y="852" width="59" height="60" fill="white"/>
<rect x="300.5" y="852" width="59" height="60" fill="white"/>
<rect x="360.5" y="852" width="59" height="60" fill="white"/>
<rect x="420.5" y="852" width="59" height="60" fill="white"/>
<rect x="480.5" y="852" width="59" height="60" fill="white"/>
<rect x="540.5" y="852" width="59" height="60" fill="white"/>
<rect x="600.5" y="852" width="59" height="60" fill="white"/>
<rect x="660.5" y="852" width="59" height="60" fill="white"/>
<rect x="720.5" y="852" width="59" height="60" fill="white"/>
<rect x="780.5" y="852" width="59" height="60" fill="white"/>
<rect x="840.5" y="852" width="59" height="60" fill="white"/>
<rect x="900.5" y="852" width="59" height="60" fill="white"/>
<rect x="960.5" y="852" width="59" height="60" fill="white"/>
<rect x="1020.5" y="852" width="59" height="60" fill="white"/>
<rect x="1080.5" y="852" width="59" height="60" fill="white"/>
<rect x="1140.5" y="852" width="59" height="60" fill="white"/>
<rect x="1200.5" y="852" width="59" height="60" fill="white"/>
<rect x="1260.5" y="852" width="59" height="60" fill="white"/>
<rect x="1320.5" y="852" width="59" height="60" fill="white"/>
<rect x="1380.5" y="852" width="59" height="60" fill="white"/>
<rect x="1440.5" y="852" width="59" height="60" fill="white"/>
<rect x="1500.5" y="852" width="59" height="60" fill="white"/>
<rect x="1560.5" y="852" width="59" height="60" fill="white"/>
<rect x="1620.5" y="852" width="59" height="60" fill="white"/>
<rect x="1680.5" y="852" width="59" height="60" fill="white"/>
<rect x="1740.5" y="852" width="59" height="60" fill="white"/>
<rect x="1800.5" y="852" width="59" height="60" fill="white"/>
<rect x="1860.5" y="852" width="59" height="60" fill="white"/>
<rect x="0.5" y="913" width="59" height="60" fill="white"/>
<rect x="60.5" y="913" width="59" height="60" fill="white"/>
<rect x="120.5" y="913" width="59" height="60" fill="white"/>
<rect x="180.5" y="913" width="59" height="60" fill="white"/>
<rect x="240.5" y="913" width="59" height="60" fill="white"/>
<rect x="300.5" y="913" width="59" height="60" fill="white"/>
<rect x="360.5" y="913" width="59" height="60" fill="white"/>
<rect x="420.5" y="913" width="59" height="60" fill="white"/>
<rect x="480.5" y="913" width="59" height="60" fill="white"/>
<rect x="540.5" y="913" width="59" height="60" fill="white"/>
<rect x="600.5" y="913" width="59" height="60" fill="white"/>
<rect x="660.5" y="913" width="59" height="60" fill="white"/>
<rect x="720.5" y="913" width="59" height="60" fill="white"/>
<rect x="780.5" y="913" width="59" height="60" fill="white"/>
<rect x="840.5" y="913" width="59" height="60" fill="white"/>
<rect x="900.5" y="913" width="59" height="60" fill="white"/>
<rect x="960.5" y="913" width="59" height="60" fill="white"/>
<rect x="1020.5" y="913" width="59" height="60" fill="white"/>
<rect x="1080.5" y="913" width="59" height="60" fill="white"/>
<rect x="1140.5" y="913" width="59" height="60" fill="white"/>
<rect x="1200.5" y="913" width="59" height="60" fill="white"/>
<rect x="1260.5" y="913" width="59" height="60" fill="white"/>
<rect x="1320.5" y="913" width="59" height="60" fill="white"/>
<rect x="1380.5" y="913" width="59" height="60" fill="white"/>
<rect x="1440.5" y="913" width="59" height="60" fill="white"/>
<rect x="1500.5" y="913" width="59" height="60" fill="white"/>
<rect x="1560.5" y="913" width="59" height="60" fill="white"/>
<rect x="1620.5" y="913" width="59" height="60" fill="white"/>
<rect x="1680.5" y="913" width="59" height="60" fill="white"/>
<rect x="1740.5" y="913" width="59" height="60" fill="white"/>
<rect x="1800.5" y="913" width="59" height="60" fill="white"/>
<rect x="1860.5" y="913" width="59" height="60" fill="white"/>
<rect x="0.5" y="974" width="59" height="60" fill="white"/>
<rect x="60.5" y="974" width="59" height="60" fill="white"/>
<rect x="120.5" y="974" width="59" height="60" fill="white"/>
<rect x="180.5" y="974" width="59" height="60" fill="white"/>
<rect x="240.5" y="974" width="59" height="60" fill="white"/>
<rect x="300.5" y="974" width="59" height="60" fill="white"/>
<rect x="360.5" y="974" width="59" height="60" fill="white"/>
<rect x="420.5" y="974" width="59" height="60" fill="white"/>
<rect x="480.5" y="974" width="59" height="60" fill="white"/>
<rect x="540.5" y="974" width="59" height="60" fill="white"/>
<rect x="600.5" y="974" width="59" height="60" fill="white"/>
<rect x="660.5" y="974" width="59" height="60" fill="white"/>
<rect x="720.5" y="974" width="59" height="60" fill="white"/>
<rect x="780.5" y="974" width="59" height="60" fill="white"/>
<rect x="840.5" y="974" width="59" height="60" fill="white"/>
<rect x="900.5" y="974" width="59" height="60" fill="white"/>
<rect x="960.5" y="974" width="59" height="60" fill="white"/>
<rect x="1020.5" y="974" width="59" height="60" fill="white"/>
<rect x="1080.5" y="974" width="59" height="60" fill="white"/>
<rect x="1140.5" y="974" width="59" height="60" fill="white"/>
<rect x="1200.5" y="974" width="59" height="60" fill="white"/>
<rect x="1260.5" y="974" width="59" height="60" fill="white"/>
<rect x="1320.5" y="974" width="59" height="60" fill="white"/>
<rect x="1380.5" y="974" width="59" height="60" fill="white"/>
<rect x="1440.5" y="974" width="59" height="60" fill="white"/>
<rect x="1500.5" y="974" width="59" height="60" fill="white"/>
<rect x="1560.5" y="974" width="59" height="60" fill="white"/>
<rect x="1620.5" y="974" width="59" height="60" fill="white"/>
<rect x="1680.5" y="974" width="59" height="60" fill="white"/>
<rect x="1740.5" y="974" width="59" height="60" fill="white"/>
<rect x="1800.5" y="974" width="59" height="60" fill="white"/>
<rect x="1860.5" y="974" width="59" height="60" fill="white"/>
<rect x="0.5" y="1035" width="59" height="60" fill="white"/>
<rect x="60.5" y="1035" width="59" height="60" fill="white"/>
<rect x="120.5" y="1035" width="59" height="60" fill="white"/>
<rect x="180.5" y="1035" width="59" height="60" fill="white"/>
<rect x="240.5" y="1035" width="59" height="60" fill="white"/>
<rect x="300.5" y="1035" width="59" height="60" fill="white"/>
<rect x="360.5" y="1035" width="59" height="60" fill="white"/>
<rect x="420.5" y="1035" width="59" height="60" fill="white"/>
<rect x="480.5" y="1035" width="59" height="60" fill="white"/>
<rect x="540.5" y="1035" width="59" height="60" fill="white"/>
<rect x="600.5" y="1035" width="59" height="60" fill="white"/>
<rect x="660.5" y="1035" width="59" height="60" fill="white"/>
<rect x="720.5" y="1035" width="59" height="60" fill="white"/>
<rect x="780.5" y="1035" width="59" height="60" fill="white"/>
<rect x="840.5" y="1035" width="59" height="60" fill="white"/>
<rect x="900.5" y="1035" width="59" height="60" fill="white"/>
<rect x="960.5" y="1035" width="59" height="60" fill="white"/>
<rect x="1020.5" y="1035" width="59" height="60" fill="white"/>
<rect x="1080.5" y="1035" width="59" height="60" fill="white"/>
<rect x="1140.5" y="1035" width="59" height="60" fill="white"/>
<rect x="1200.5" y="1035" width="59" height="60" fill="white"/>
<rect x="1260.5" y="1035" width="59" height="60" fill="white"/>
<rect x="1320.5" y="1035" width="59" height="60" fill="white"/>
<rect x="1380.5" y="1035" width="59" height="60" fill="white"/>
<rect x="1440.5" y="1035" width="59" height="60" fill="white"/>
<rect x="1500.5" y="1035" width="59" height="60" fill="white"/>
<rect x="1560.5" y="1035" width="59" height="60" fill="white"/>
<rect x="1620.5" y="1035" width="59" height="60" fill="white"/>
<rect x="1680.5" y="1035" width="59" height="60" fill="white"/>
<rect x="1740.5" y="1035" width="59" height="60" fill="white"/>
<rect x="1800.5" y="1035" width="59" height="60" fill="white"/>
<rect x="1860.5" y="1035" width="59" height="60" fill="white"/>
</g>
<defs>
<clipPath id="clip0_1316_32675">
<rect width="1920" height="1093" fill="white"/>
</clipPath>
</defs>
</svg>
