<svg width="1440" height="1461" viewBox="0 0 1440 1461" fill="none" xmlns="http://www.w3.org/2000/svg">
<g clip-path="url(#clip0_1316_32054)">
<rect x="0.5" y="-1" width="59" height="60" fill="white"/>
<rect x="60.5" y="-1" width="59" height="60" fill="white"/>
<rect x="120.5" y="-1" width="59" height="60" fill="white"/>
<rect x="180.5" y="-1" width="59" height="60" fill="white"/>
<rect x="240.5" y="-1" width="59" height="60" fill="white"/>
<rect x="300.5" y="-1" width="59" height="60" fill="white"/>
<rect x="360.5" y="-1" width="59" height="60" fill="white"/>
<rect x="420.5" y="-1" width="59" height="60" fill="white"/>
<rect x="480.5" y="-1" width="59" height="60" fill="white"/>
<rect x="540.5" y="-1" width="59" height="60" fill="white"/>
<rect x="600.5" y="-1" width="59" height="60" fill="white"/>
<rect x="660.5" y="-1" width="59" height="60" fill="white"/>
<rect x="720.5" y="-1" width="59" height="60" fill="white"/>
<rect x="780.5" y="-1" width="59" height="60" fill="white"/>
<rect x="840.5" y="-1" width="59" height="60" fill="white"/>
<rect x="900.5" y="-1" width="59" height="60" fill="white"/>
<rect x="960.5" y="-1" width="59" height="60" fill="white"/>
<rect x="1020.5" y="-1" width="59" height="60" fill="white"/>
<rect x="1080.5" y="-1" width="59" height="60" fill="white"/>
<rect x="1140.5" y="-1" width="59" height="60" fill="white"/>
<rect x="1200.5" y="-1" width="59" height="60" fill="white"/>
<rect x="1260.5" y="-1" width="59" height="60" fill="white"/>
<rect x="1320.5" y="-1" width="59" height="60" fill="white"/>
<rect x="1380.5" y="-1" width="59" height="60" fill="white"/>
<rect x="0.5" y="60" width="59" height="60" fill="white"/>
<rect x="60.5" y="60" width="59" height="60" fill="white"/>
<rect x="120.5" y="60" width="59" height="60" fill="white"/>
<rect x="180.5" y="60" width="59" height="60" fill="white"/>
<rect x="240.5" y="60" width="59" height="60" fill="white"/>
<rect x="300.5" y="60" width="59" height="60" fill="white"/>
<rect x="360.5" y="60" width="59" height="60" fill="white"/>
<rect x="420.5" y="60" width="59" height="60" fill="white"/>
<rect x="480.5" y="60" width="59" height="60" fill="white"/>
<rect x="540.5" y="60" width="59" height="60" fill="white"/>
<rect x="600.5" y="60" width="59" height="60" fill="white"/>
<rect x="660.5" y="60" width="59" height="60" fill="white"/>
<rect x="720.5" y="60" width="59" height="60" fill="white"/>
<rect x="780.5" y="60" width="59" height="60" fill="white"/>
<rect x="840.5" y="60" width="59" height="60" fill="white"/>
<rect x="900.5" y="60" width="59" height="60" fill="white"/>
<rect x="960.5" y="60" width="59" height="60" fill="white"/>
<rect x="1020.5" y="60" width="59" height="60" fill="white"/>
<rect x="1080.5" y="60" width="59" height="60" fill="white"/>
<rect x="1140.5" y="60" width="59" height="60" fill="white"/>
<rect x="1200.5" y="60" width="59" height="60" fill="white"/>
<rect x="1260.5" y="60" width="59" height="60" fill="white"/>
<rect x="1320.5" y="60" width="59" height="60" fill="white"/>
<rect x="1380.5" y="60" width="59" height="60" fill="white"/>
<rect x="0.5" y="121" width="59" height="60" fill="white"/>
<rect x="60.5" y="121" width="59" height="60" fill="white"/>
<rect x="120.5" y="121" width="59" height="60" fill="white"/>
<rect x="180.5" y="121" width="59" height="60" fill="white"/>
<rect x="240.5" y="121" width="59" height="60" fill="white"/>
<rect x="300.5" y="121" width="59" height="60" fill="white"/>
<rect x="360.5" y="121" width="59" height="60" fill="white"/>
<rect x="420.5" y="121" width="59" height="60" fill="white"/>
<rect x="480.5" y="121" width="59" height="60" fill="white"/>
<rect x="540.5" y="121" width="59" height="60" fill="white"/>
<rect x="600.5" y="121" width="59" height="60" fill="white"/>
<rect x="660.5" y="121" width="59" height="60" fill="white"/>
<rect x="720.5" y="121" width="59" height="60" fill="white"/>
<rect x="780.5" y="121" width="59" height="60" fill="white"/>
<rect x="840.5" y="121" width="59" height="60" fill="white"/>
<rect x="900.5" y="121" width="59" height="60" fill="white"/>
<rect x="960.5" y="121" width="59" height="60" fill="white"/>
<rect x="1020.5" y="121" width="59" height="60" fill="white"/>
<rect x="1080.5" y="121" width="59" height="60" fill="white"/>
<rect x="1140.5" y="121" width="59" height="60" fill="white"/>
<rect x="1200.5" y="121" width="59" height="60" fill="white"/>
<rect x="1260.5" y="121" width="59" height="60" fill="white"/>
<rect x="1320.5" y="121" width="59" height="60" fill="white"/>
<rect x="1380.5" y="121" width="59" height="60" fill="white"/>
<rect x="0.5" y="182" width="59" height="60" fill="white"/>
<rect x="60.5" y="182" width="59" height="60" fill="white"/>
<rect x="120.5" y="182" width="59" height="60" fill="white"/>
<rect x="180.5" y="182" width="59" height="60" fill="white"/>
<rect x="240.5" y="182" width="59" height="60" fill="white"/>
<rect x="300.5" y="182" width="59" height="60" fill="white"/>
<rect x="360.5" y="182" width="59" height="60" fill="white"/>
<rect x="420.5" y="182" width="59" height="60" fill="white"/>
<rect x="480.5" y="182" width="59" height="60" fill="white"/>
<rect x="540.5" y="182" width="59" height="60" fill="white"/>
<rect x="600.5" y="182" width="59" height="60" fill="white"/>
<rect x="660.5" y="182" width="59" height="60" fill="white"/>
<rect x="720.5" y="182" width="59" height="60" fill="white"/>
<rect x="780.5" y="182" width="59" height="60" fill="white"/>
<rect x="840.5" y="182" width="59" height="60" fill="white"/>
<rect x="900.5" y="182" width="59" height="60" fill="white"/>
<rect x="960.5" y="182" width="59" height="60" fill="white"/>
<rect x="1020.5" y="182" width="59" height="60" fill="white"/>
<rect x="1080.5" y="182" width="59" height="60" fill="white"/>
<rect x="1140.5" y="182" width="59" height="60" fill="white"/>
<rect x="1200.5" y="182" width="59" height="60" fill="white"/>
<rect x="1260.5" y="182" width="59" height="60" fill="white"/>
<rect x="1320.5" y="182" width="59" height="60" fill="white"/>
<rect x="1380.5" y="182" width="59" height="60" fill="white"/>
<rect x="0.5" y="243" width="59" height="60" fill="white"/>
<rect x="60.5" y="243" width="59" height="60" fill="white"/>
<rect x="120.5" y="243" width="59" height="60" fill="white"/>
<rect x="180.5" y="243" width="59" height="60" fill="white"/>
<rect x="240.5" y="243" width="59" height="60" fill="white"/>
<rect x="300.5" y="243" width="59" height="60" fill="white"/>
<rect x="360.5" y="243" width="59" height="60" fill="white"/>
<rect x="420.5" y="243" width="59" height="60" fill="white"/>
<rect x="480.5" y="243" width="59" height="60" fill="white"/>
<rect x="540.5" y="243" width="59" height="60" fill="white"/>
<rect x="600.5" y="243" width="59" height="60" fill="white"/>
<rect x="660.5" y="243" width="59" height="60" fill="white"/>
<rect x="720.5" y="243" width="59" height="60" fill="white"/>
<rect x="780.5" y="243" width="59" height="60" fill="white"/>
<rect x="840.5" y="243" width="59" height="60" fill="white"/>
<rect x="900.5" y="243" width="59" height="60" fill="white"/>
<rect x="960.5" y="243" width="59" height="60" fill="white"/>
<rect x="1020.5" y="243" width="59" height="60" fill="white"/>
<rect x="1080.5" y="243" width="59" height="60" fill="white"/>
<rect x="1140.5" y="243" width="59" height="60" fill="white"/>
<rect x="1200.5" y="243" width="59" height="60" fill="white"/>
<rect x="1260.5" y="243" width="59" height="60" fill="white"/>
<rect x="1320.5" y="243" width="59" height="60" fill="white"/>
<rect x="1380.5" y="243" width="59" height="60" fill="white"/>
<rect x="0.5" y="304" width="59" height="60" fill="white"/>
<rect x="60.5" y="304" width="59" height="60" fill="white"/>
<rect x="120.5" y="304" width="59" height="60" fill="white"/>
<rect x="180.5" y="304" width="59" height="60" fill="white"/>
<rect x="240.5" y="304" width="59" height="60" fill="white"/>
<rect x="300.5" y="304" width="59" height="60" fill="white"/>
<rect x="360.5" y="304" width="59" height="60" fill="white"/>
<rect x="420.5" y="304" width="59" height="60" fill="white"/>
<rect x="480.5" y="304" width="59" height="60" fill="white"/>
<rect x="540.5" y="304" width="59" height="60" fill="white"/>
<rect x="600.5" y="304" width="59" height="60" fill="white"/>
<rect x="660.5" y="304" width="59" height="60" fill="white"/>
<rect x="720.5" y="304" width="59" height="60" fill="white"/>
<rect x="780.5" y="304" width="59" height="60" fill="white"/>
<rect x="840.5" y="304" width="59" height="60" fill="white"/>
<rect x="900.5" y="304" width="59" height="60" fill="white"/>
<rect x="960.5" y="304" width="59" height="60" fill="white"/>
<rect x="1020.5" y="304" width="59" height="60" fill="white"/>
<rect x="1080.5" y="304" width="59" height="60" fill="white"/>
<rect x="1140.5" y="304" width="59" height="60" fill="white"/>
<rect x="1200.5" y="304" width="59" height="60" fill="white"/>
<rect x="1260.5" y="304" width="59" height="60" fill="white"/>
<rect x="1320.5" y="304" width="59" height="60" fill="white"/>
<rect x="1380.5" y="304" width="59" height="60" fill="white"/>
<rect x="0.5" y="365" width="59" height="60" fill="white"/>
<rect x="60.5" y="365" width="59" height="60" fill="white"/>
<rect x="120.5" y="365" width="59" height="60" fill="white"/>
<rect x="180.5" y="365" width="59" height="60" fill="white"/>
<rect x="240.5" y="365" width="59" height="60" fill="white"/>
<rect x="300.5" y="365" width="59" height="60" fill="white"/>
<rect x="360.5" y="365" width="59" height="60" fill="white"/>
<rect x="420.5" y="365" width="59" height="60" fill="white"/>
<rect x="480.5" y="365" width="59" height="60" fill="white"/>
<rect x="540.5" y="365" width="59" height="60" fill="white"/>
<rect x="600.5" y="365" width="59" height="60" fill="white"/>
<rect x="660.5" y="365" width="59" height="60" fill="white"/>
<rect x="720.5" y="365" width="59" height="60" fill="white"/>
<rect x="780.5" y="365" width="59" height="60" fill="white"/>
<rect x="840.5" y="365" width="59" height="60" fill="white"/>
<rect x="900.5" y="365" width="59" height="60" fill="white"/>
<rect x="960.5" y="365" width="59" height="60" fill="white"/>
<rect x="1020.5" y="365" width="59" height="60" fill="white"/>
<rect x="1080.5" y="365" width="59" height="60" fill="white"/>
<rect x="1140.5" y="365" width="59" height="60" fill="white"/>
<rect x="1200.5" y="365" width="59" height="60" fill="white"/>
<rect x="1260.5" y="365" width="59" height="60" fill="white"/>
<rect x="1320.5" y="365" width="59" height="60" fill="white"/>
<rect x="1380.5" y="365" width="59" height="60" fill="white"/>
<rect x="0.5" y="426" width="59" height="60" fill="white"/>
<rect x="60.5" y="426" width="59" height="60" fill="white"/>
<rect x="120.5" y="426" width="59" height="60" fill="white"/>
<rect x="180.5" y="426" width="59" height="60" fill="white"/>
<rect x="240.5" y="426" width="59" height="60" fill="white"/>
<rect x="300.5" y="426" width="59" height="60" fill="white"/>
<rect x="360.5" y="426" width="59" height="60" fill="white"/>
<rect x="420.5" y="426" width="59" height="60" fill="white"/>
<rect x="480.5" y="426" width="59" height="60" fill="white"/>
<rect x="540.5" y="426" width="59" height="60" fill="white"/>
<rect x="600.5" y="426" width="59" height="60" fill="white"/>
<rect x="660.5" y="426" width="59" height="60" fill="white"/>
<rect x="720.5" y="426" width="59" height="60" fill="white"/>
<rect x="780.5" y="426" width="59" height="60" fill="white"/>
<rect x="840.5" y="426" width="59" height="60" fill="white"/>
<rect x="900.5" y="426" width="59" height="60" fill="white"/>
<rect x="960.5" y="426" width="59" height="60" fill="white"/>
<rect x="1020.5" y="426" width="59" height="60" fill="white"/>
<rect x="1080.5" y="426" width="59" height="60" fill="white"/>
<rect x="1140.5" y="426" width="59" height="60" fill="white"/>
<rect x="1200.5" y="426" width="59" height="60" fill="white"/>
<rect x="1260.5" y="426" width="59" height="60" fill="white"/>
<rect x="1320.5" y="426" width="59" height="60" fill="white"/>
<rect x="1380.5" y="426" width="59" height="60" fill="white"/>
<rect x="0.5" y="487" width="59" height="60" fill="white"/>
<rect x="60.5" y="487" width="59" height="60" fill="white"/>
<rect x="120.5" y="487" width="59" height="60" fill="white"/>
<rect x="180.5" y="487" width="59" height="60" fill="white"/>
<rect x="240.5" y="487" width="59" height="60" fill="white"/>
<rect x="300.5" y="487" width="59" height="60" fill="white"/>
<rect x="360.5" y="487" width="59" height="60" fill="white"/>
<rect x="420.5" y="487" width="59" height="60" fill="white"/>
<rect x="480.5" y="487" width="59" height="60" fill="white"/>
<rect x="540.5" y="487" width="59" height="60" fill="white"/>
<rect x="600.5" y="487" width="59" height="60" fill="white"/>
<rect x="660.5" y="487" width="59" height="60" fill="white"/>
<rect x="720.5" y="487" width="59" height="60" fill="white"/>
<rect x="780.5" y="487" width="59" height="60" fill="white"/>
<rect x="840.5" y="487" width="59" height="60" fill="white"/>
<rect x="900.5" y="487" width="59" height="60" fill="white"/>
<rect x="960.5" y="487" width="59" height="60" fill="white"/>
<rect x="1020.5" y="487" width="59" height="60" fill="white"/>
<rect x="1080.5" y="487" width="59" height="60" fill="white"/>
<rect x="1140.5" y="487" width="59" height="60" fill="white"/>
<rect x="1200.5" y="487" width="59" height="60" fill="white"/>
<rect x="1260.5" y="487" width="59" height="60" fill="white"/>
<rect x="1320.5" y="487" width="59" height="60" fill="white"/>
<rect x="1380.5" y="487" width="59" height="60" fill="white"/>
<rect x="0.5" y="548" width="59" height="60" fill="white"/>
<rect x="60.5" y="548" width="59" height="60" fill="white"/>
<rect x="120.5" y="548" width="59" height="60" fill="white"/>
<rect x="180.5" y="548" width="59" height="60" fill="white"/>
<rect x="240.5" y="548" width="59" height="60" fill="white"/>
<rect x="300.5" y="548" width="59" height="60" fill="white"/>
<rect x="360.5" y="548" width="59" height="60" fill="white"/>
<rect x="420.5" y="548" width="59" height="60" fill="white"/>
<rect x="480.5" y="548" width="59" height="60" fill="white"/>
<rect x="540.5" y="548" width="59" height="60" fill="white"/>
<rect x="600.5" y="548" width="59" height="60" fill="white"/>
<rect x="660.5" y="548" width="59" height="60" fill="white"/>
<rect x="720.5" y="548" width="59" height="60" fill="white"/>
<rect x="780.5" y="548" width="59" height="60" fill="white"/>
<rect x="840.5" y="548" width="59" height="60" fill="white"/>
<rect x="900.5" y="548" width="59" height="60" fill="white"/>
<rect x="960.5" y="548" width="59" height="60" fill="white"/>
<rect x="1020.5" y="548" width="59" height="60" fill="white"/>
<rect x="1080.5" y="548" width="59" height="60" fill="white"/>
<rect x="1140.5" y="548" width="59" height="60" fill="white"/>
<rect x="1200.5" y="548" width="59" height="60" fill="white"/>
<rect x="1260.5" y="548" width="59" height="60" fill="white"/>
<rect x="1320.5" y="548" width="59" height="60" fill="white"/>
<rect x="1380.5" y="548" width="59" height="60" fill="white"/>
<rect x="0.5" y="609" width="59" height="60" fill="white"/>
<rect x="60.5" y="609" width="59" height="60" fill="white"/>
<rect x="120.5" y="609" width="59" height="60" fill="white"/>
<rect x="180.5" y="609" width="59" height="60" fill="white"/>
<rect x="240.5" y="609" width="59" height="60" fill="white"/>
<rect x="300.5" y="609" width="59" height="60" fill="white"/>
<rect x="360.5" y="609" width="59" height="60" fill="white"/>
<rect x="420.5" y="609" width="59" height="60" fill="white"/>
<rect x="480.5" y="609" width="59" height="60" fill="white"/>
<rect x="540.5" y="609" width="59" height="60" fill="white"/>
<rect x="600.5" y="609" width="59" height="60" fill="white"/>
<rect x="660.5" y="609" width="59" height="60" fill="white"/>
<rect x="720.5" y="609" width="59" height="60" fill="white"/>
<rect x="780.5" y="609" width="59" height="60" fill="white"/>
<rect x="840.5" y="609" width="59" height="60" fill="white"/>
<rect x="900.5" y="609" width="59" height="60" fill="white"/>
<rect x="960.5" y="609" width="59" height="60" fill="white"/>
<rect x="1020.5" y="609" width="59" height="60" fill="white"/>
<rect x="1080.5" y="609" width="59" height="60" fill="white"/>
<rect x="1140.5" y="609" width="59" height="60" fill="white"/>
<rect x="1200.5" y="609" width="59" height="60" fill="white"/>
<rect x="1260.5" y="609" width="59" height="60" fill="white"/>
<rect x="1320.5" y="609" width="59" height="60" fill="white"/>
<rect x="1380.5" y="609" width="59" height="60" fill="white"/>
<rect x="0.5" y="670" width="59" height="60" fill="white"/>
<rect x="60.5" y="670" width="59" height="60" fill="white"/>
<rect x="120.5" y="670" width="59" height="60" fill="white"/>
<rect x="180.5" y="670" width="59" height="60" fill="white"/>
<rect x="240.5" y="670" width="59" height="60" fill="white"/>
<rect x="300.5" y="670" width="59" height="60" fill="white"/>
<rect x="360.5" y="670" width="59" height="60" fill="white"/>
<rect x="420.5" y="670" width="59" height="60" fill="white"/>
<rect x="480.5" y="670" width="59" height="60" fill="white"/>
<rect x="540.5" y="670" width="59" height="60" fill="white"/>
<rect x="600.5" y="670" width="59" height="60" fill="white"/>
<rect x="660.5" y="670" width="59" height="60" fill="white"/>
<rect x="720.5" y="670" width="59" height="60" fill="white"/>
<rect x="780.5" y="670" width="59" height="60" fill="white"/>
<rect x="840.5" y="670" width="59" height="60" fill="white"/>
<rect x="900.5" y="670" width="59" height="60" fill="white"/>
<rect x="960.5" y="670" width="59" height="60" fill="white"/>
<rect x="1020.5" y="670" width="59" height="60" fill="white"/>
<rect x="1080.5" y="670" width="59" height="60" fill="white"/>
<rect x="1140.5" y="670" width="59" height="60" fill="white"/>
<rect x="1200.5" y="670" width="59" height="60" fill="white"/>
<rect x="1260.5" y="670" width="59" height="60" fill="white"/>
<rect x="1320.5" y="670" width="59" height="60" fill="white"/>
<rect x="1380.5" y="670" width="59" height="60" fill="white"/>
<rect x="0.5" y="731" width="59" height="60" fill="white"/>
<rect x="60.5" y="731" width="59" height="60" fill="white"/>
<rect x="120.5" y="731" width="59" height="60" fill="white"/>
<rect x="180.5" y="731" width="59" height="60" fill="white"/>
<rect x="240.5" y="731" width="59" height="60" fill="white"/>
<rect x="300.5" y="731" width="59" height="60" fill="white"/>
<rect x="360.5" y="731" width="59" height="60" fill="white"/>
<rect x="420.5" y="731" width="59" height="60" fill="white"/>
<rect x="480.5" y="731" width="59" height="60" fill="white"/>
<rect x="540.5" y="731" width="59" height="60" fill="white"/>
<rect x="600.5" y="731" width="59" height="60" fill="white"/>
<rect x="660.5" y="731" width="59" height="60" fill="white"/>
<rect x="720.5" y="731" width="59" height="60" fill="white"/>
<rect x="780.5" y="731" width="59" height="60" fill="white"/>
<rect x="840.5" y="731" width="59" height="60" fill="white"/>
<rect x="900.5" y="731" width="59" height="60" fill="white"/>
<rect x="960.5" y="731" width="59" height="60" fill="white"/>
<rect x="1020.5" y="731" width="59" height="60" fill="white"/>
<rect x="1080.5" y="731" width="59" height="60" fill="white"/>
<rect x="1140.5" y="731" width="59" height="60" fill="white"/>
<rect x="1200.5" y="731" width="59" height="60" fill="white"/>
<rect x="1260.5" y="731" width="59" height="60" fill="white"/>
<rect x="1320.5" y="731" width="59" height="60" fill="white"/>
<rect x="1380.5" y="731" width="59" height="60" fill="white"/>
<rect x="0.5" y="792" width="59" height="60" fill="white"/>
<rect x="60.5" y="792" width="59" height="60" fill="white"/>
<rect x="120.5" y="792" width="59" height="60" fill="white"/>
<rect x="180.5" y="792" width="59" height="60" fill="white"/>
<rect x="240.5" y="792" width="59" height="60" fill="white"/>
<rect x="300.5" y="792" width="59" height="60" fill="white"/>
<rect x="360.5" y="792" width="59" height="60" fill="white"/>
<rect x="420.5" y="792" width="59" height="60" fill="white"/>
<rect x="480.5" y="792" width="59" height="60" fill="white"/>
<rect x="540.5" y="792" width="59" height="60" fill="white"/>
<rect x="600.5" y="792" width="59" height="60" fill="white"/>
<rect x="660.5" y="792" width="59" height="60" fill="white"/>
<rect x="720.5" y="792" width="59" height="60" fill="white"/>
<rect x="780.5" y="792" width="59" height="60" fill="white"/>
<rect x="840.5" y="792" width="59" height="60" fill="white"/>
<rect x="900.5" y="792" width="59" height="60" fill="white"/>
<rect x="960.5" y="792" width="59" height="60" fill="white"/>
<rect x="1020.5" y="792" width="59" height="60" fill="white"/>
<rect x="1080.5" y="792" width="59" height="60" fill="white"/>
<rect x="1140.5" y="792" width="59" height="60" fill="white"/>
<rect x="1200.5" y="792" width="59" height="60" fill="white"/>
<rect x="1260.5" y="792" width="59" height="60" fill="white"/>
<rect x="1320.5" y="792" width="59" height="60" fill="white"/>
<rect x="1380.5" y="792" width="59" height="60" fill="white"/>
<rect x="0.5" y="853" width="59" height="60" fill="white"/>
<rect x="60.5" y="853" width="59" height="60" fill="white"/>
<rect x="120.5" y="853" width="59" height="60" fill="white"/>
<rect x="180.5" y="853" width="59" height="60" fill="white"/>
<rect x="240.5" y="853" width="59" height="60" fill="white"/>
<rect x="300.5" y="853" width="59" height="60" fill="white"/>
<rect x="360.5" y="853" width="59" height="60" fill="white"/>
<rect x="420.5" y="853" width="59" height="60" fill="white"/>
<rect x="480.5" y="853" width="59" height="60" fill="white"/>
<rect x="540.5" y="853" width="59" height="60" fill="white"/>
<rect x="600.5" y="853" width="59" height="60" fill="white"/>
<rect x="660.5" y="853" width="59" height="60" fill="white"/>
<rect x="720.5" y="853" width="59" height="60" fill="white"/>
<rect x="780.5" y="853" width="59" height="60" fill="white"/>
<rect x="840.5" y="853" width="59" height="60" fill="white"/>
<rect x="900.5" y="853" width="59" height="60" fill="white"/>
<rect x="960.5" y="853" width="59" height="60" fill="white"/>
<rect x="1020.5" y="853" width="59" height="60" fill="white"/>
<rect x="1080.5" y="853" width="59" height="60" fill="white"/>
<rect x="1140.5" y="853" width="59" height="60" fill="white"/>
<rect x="1200.5" y="853" width="59" height="60" fill="white"/>
<rect x="1260.5" y="853" width="59" height="60" fill="white"/>
<rect x="1320.5" y="853" width="59" height="60" fill="white"/>
<rect x="1380.5" y="853" width="59" height="60" fill="white"/>
<rect x="0.5" y="914" width="59" height="60" fill="white"/>
<rect x="60.5" y="914" width="59" height="60" fill="white"/>
<rect x="120.5" y="914" width="59" height="60" fill="white"/>
<rect x="180.5" y="914" width="59" height="60" fill="white"/>
<rect x="240.5" y="914" width="59" height="60" fill="white"/>
<rect x="300.5" y="914" width="59" height="60" fill="white"/>
<rect x="360.5" y="914" width="59" height="60" fill="white"/>
<rect x="420.5" y="914" width="59" height="60" fill="white"/>
<rect x="480.5" y="914" width="59" height="60" fill="white"/>
<rect x="540.5" y="914" width="59" height="60" fill="white"/>
<rect x="600.5" y="914" width="59" height="60" fill="white"/>
<rect x="660.5" y="914" width="59" height="60" fill="white"/>
<rect x="720.5" y="914" width="59" height="60" fill="white"/>
<rect x="780.5" y="914" width="59" height="60" fill="white"/>
<rect x="840.5" y="914" width="59" height="60" fill="white"/>
<rect x="900.5" y="914" width="59" height="60" fill="white"/>
<rect x="960.5" y="914" width="59" height="60" fill="white"/>
<rect x="1020.5" y="914" width="59" height="60" fill="white"/>
<rect x="1080.5" y="914" width="59" height="60" fill="white"/>
<rect x="1140.5" y="914" width="59" height="60" fill="white"/>
<rect x="1200.5" y="914" width="59" height="60" fill="white"/>
<rect x="1260.5" y="914" width="59" height="60" fill="white"/>
<rect x="1320.5" y="914" width="59" height="60" fill="white"/>
<rect x="1380.5" y="914" width="59" height="60" fill="white"/>
<rect x="0.5" y="975" width="59" height="60" fill="white"/>
<rect x="60.5" y="975" width="59" height="60" fill="white"/>
<rect x="120.5" y="975" width="59" height="60" fill="white"/>
<rect x="180.5" y="975" width="59" height="60" fill="white"/>
<rect x="240.5" y="975" width="59" height="60" fill="white"/>
<rect x="300.5" y="975" width="59" height="60" fill="white"/>
<rect x="360.5" y="975" width="59" height="60" fill="white"/>
<rect x="420.5" y="975" width="59" height="60" fill="white"/>
<rect x="480.5" y="975" width="59" height="60" fill="white"/>
<rect x="540.5" y="975" width="59" height="60" fill="white"/>
<rect x="600.5" y="975" width="59" height="60" fill="white"/>
<rect x="660.5" y="975" width="59" height="60" fill="white"/>
<rect x="720.5" y="975" width="59" height="60" fill="white"/>
<rect x="780.5" y="975" width="59" height="60" fill="white"/>
<rect x="840.5" y="975" width="59" height="60" fill="white"/>
<rect x="900.5" y="975" width="59" height="60" fill="white"/>
<rect x="960.5" y="975" width="59" height="60" fill="white"/>
<rect x="1020.5" y="975" width="59" height="60" fill="white"/>
<rect x="1080.5" y="975" width="59" height="60" fill="white"/>
<rect x="1140.5" y="975" width="59" height="60" fill="white"/>
<rect x="1200.5" y="975" width="59" height="60" fill="white"/>
<rect x="1260.5" y="975" width="59" height="60" fill="white"/>
<rect x="1320.5" y="975" width="59" height="60" fill="white"/>
<rect x="1380.5" y="975" width="59" height="60" fill="white"/>
<rect x="0.5" y="1036" width="59" height="60" fill="white"/>
<rect x="60.5" y="1036" width="59" height="60" fill="white"/>
<rect x="120.5" y="1036" width="59" height="60" fill="white"/>
<rect x="180.5" y="1036" width="59" height="60" fill="white"/>
<rect x="240.5" y="1036" width="59" height="60" fill="white"/>
<rect x="300.5" y="1036" width="59" height="60" fill="white"/>
<rect x="360.5" y="1036" width="59" height="60" fill="white"/>
<rect x="420.5" y="1036" width="59" height="60" fill="white"/>
<rect x="480.5" y="1036" width="59" height="60" fill="white"/>
<rect x="540.5" y="1036" width="59" height="60" fill="white"/>
<rect x="600.5" y="1036" width="59" height="60" fill="white"/>
<rect x="660.5" y="1036" width="59" height="60" fill="white"/>
<rect x="720.5" y="1036" width="59" height="60" fill="white"/>
<rect x="780.5" y="1036" width="59" height="60" fill="white"/>
<rect x="840.5" y="1036" width="59" height="60" fill="white"/>
<rect x="900.5" y="1036" width="59" height="60" fill="white"/>
<rect x="960.5" y="1036" width="59" height="60" fill="white"/>
<rect x="1020.5" y="1036" width="59" height="60" fill="white"/>
<rect x="1080.5" y="1036" width="59" height="60" fill="white"/>
<rect x="1140.5" y="1036" width="59" height="60" fill="white"/>
<rect x="1200.5" y="1036" width="59" height="60" fill="white"/>
<rect x="1260.5" y="1036" width="59" height="60" fill="white"/>
<rect x="1320.5" y="1036" width="59" height="60" fill="white"/>
<rect x="1380.5" y="1036" width="59" height="60" fill="white"/>
<rect x="0.5" y="1097" width="59" height="60" fill="white"/>
<rect x="60.5" y="1097" width="59" height="60" fill="white"/>
<rect x="120.5" y="1097" width="59" height="60" fill="white"/>
<rect x="180.5" y="1097" width="59" height="60" fill="white"/>
<rect x="240.5" y="1097" width="59" height="60" fill="white"/>
<rect x="300.5" y="1097" width="59" height="60" fill="white"/>
<rect x="360.5" y="1097" width="59" height="60" fill="white"/>
<rect x="420.5" y="1097" width="59" height="60" fill="white"/>
<rect x="480.5" y="1097" width="59" height="60" fill="white"/>
<rect x="540.5" y="1097" width="59" height="60" fill="white"/>
<rect x="600.5" y="1097" width="59" height="60" fill="white"/>
<rect x="660.5" y="1097" width="59" height="60" fill="white"/>
<rect x="720.5" y="1097" width="59" height="60" fill="white"/>
<rect x="780.5" y="1097" width="59" height="60" fill="white"/>
<rect x="840.5" y="1097" width="59" height="60" fill="white"/>
<rect x="900.5" y="1097" width="59" height="60" fill="white"/>
<rect x="960.5" y="1097" width="59" height="60" fill="white"/>
<rect x="1020.5" y="1097" width="59" height="60" fill="white"/>
<rect x="1080.5" y="1097" width="59" height="60" fill="white"/>
<rect x="1140.5" y="1097" width="59" height="60" fill="white"/>
<rect x="1200.5" y="1097" width="59" height="60" fill="white"/>
<rect x="1260.5" y="1097" width="59" height="60" fill="white"/>
<rect x="1320.5" y="1097" width="59" height="60" fill="white"/>
<rect x="1380.5" y="1097" width="59" height="60" fill="white"/>
<rect x="0.5" y="1158" width="59" height="60" fill="white"/>
<rect x="60.5" y="1158" width="59" height="60" fill="white"/>
<rect x="120.5" y="1158" width="59" height="60" fill="white"/>
<rect x="180.5" y="1158" width="59" height="60" fill="white"/>
<rect x="240.5" y="1158" width="59" height="60" fill="white"/>
<rect x="300.5" y="1158" width="59" height="60" fill="white"/>
<rect x="360.5" y="1158" width="59" height="60" fill="white"/>
<rect x="420.5" y="1158" width="59" height="60" fill="white"/>
<rect x="480.5" y="1158" width="59" height="60" fill="white"/>
<rect x="540.5" y="1158" width="59" height="60" fill="white"/>
<rect x="600.5" y="1158" width="59" height="60" fill="white"/>
<rect x="660.5" y="1158" width="59" height="60" fill="white"/>
<rect x="720.5" y="1158" width="59" height="60" fill="white"/>
<rect x="780.5" y="1158" width="59" height="60" fill="white"/>
<rect x="840.5" y="1158" width="59" height="60" fill="white"/>
<rect x="900.5" y="1158" width="59" height="60" fill="white"/>
<rect x="960.5" y="1158" width="59" height="60" fill="white"/>
<rect x="1020.5" y="1158" width="59" height="60" fill="white"/>
<rect x="1080.5" y="1158" width="59" height="60" fill="white"/>
<rect x="1140.5" y="1158" width="59" height="60" fill="white"/>
<rect x="1200.5" y="1158" width="59" height="60" fill="white"/>
<rect x="1260.5" y="1158" width="59" height="60" fill="white"/>
<rect x="1320.5" y="1158" width="59" height="60" fill="white"/>
<rect x="1380.5" y="1158" width="59" height="60" fill="white"/>
<rect x="0.5" y="1219" width="59" height="60" fill="white"/>
<rect x="60.5" y="1219" width="59" height="60" fill="white"/>
<rect x="120.5" y="1219" width="59" height="60" fill="white"/>
<rect x="180.5" y="1219" width="59" height="60" fill="white"/>
<rect x="240.5" y="1219" width="59" height="60" fill="white"/>
<rect x="300.5" y="1219" width="59" height="60" fill="white"/>
<rect x="360.5" y="1219" width="59" height="60" fill="white"/>
<rect x="420.5" y="1219" width="59" height="60" fill="white"/>
<rect x="480.5" y="1219" width="59" height="60" fill="white"/>
<rect x="540.5" y="1219" width="59" height="60" fill="white"/>
<rect x="600.5" y="1219" width="59" height="60" fill="white"/>
<rect x="660.5" y="1219" width="59" height="60" fill="white"/>
<rect x="720.5" y="1219" width="59" height="60" fill="white"/>
<rect x="780.5" y="1219" width="59" height="60" fill="white"/>
<rect x="840.5" y="1219" width="59" height="60" fill="white"/>
<rect x="900.5" y="1219" width="59" height="60" fill="white"/>
<rect x="960.5" y="1219" width="59" height="60" fill="white"/>
<rect x="1020.5" y="1219" width="59" height="60" fill="white"/>
<rect x="1080.5" y="1219" width="59" height="60" fill="white"/>
<rect x="1140.5" y="1219" width="59" height="60" fill="white"/>
<rect x="1200.5" y="1219" width="59" height="60" fill="white"/>
<rect x="1260.5" y="1219" width="59" height="60" fill="white"/>
<rect x="1320.5" y="1219" width="59" height="60" fill="white"/>
<rect x="1380.5" y="1219" width="59" height="60" fill="white"/>
<rect x="0.5" y="1280" width="59" height="60" fill="white"/>
<rect x="60.5" y="1280" width="59" height="60" fill="white"/>
<rect x="120.5" y="1280" width="59" height="60" fill="white"/>
<rect x="180.5" y="1280" width="59" height="60" fill="white"/>
<rect x="240.5" y="1280" width="59" height="60" fill="white"/>
<rect x="300.5" y="1280" width="59" height="60" fill="white"/>
<rect x="360.5" y="1280" width="59" height="60" fill="white"/>
<rect x="420.5" y="1280" width="59" height="60" fill="white"/>
<rect x="480.5" y="1280" width="59" height="60" fill="white"/>
<rect x="540.5" y="1280" width="59" height="60" fill="white"/>
<rect x="600.5" y="1280" width="59" height="60" fill="white"/>
<rect x="660.5" y="1280" width="59" height="60" fill="white"/>
<rect x="720.5" y="1280" width="59" height="60" fill="white"/>
<rect x="780.5" y="1280" width="59" height="60" fill="white"/>
<rect x="840.5" y="1280" width="59" height="60" fill="white"/>
<rect x="900.5" y="1280" width="59" height="60" fill="white"/>
<rect x="960.5" y="1280" width="59" height="60" fill="white"/>
<rect x="1020.5" y="1280" width="59" height="60" fill="white"/>
<rect x="1080.5" y="1280" width="59" height="60" fill="white"/>
<rect x="1140.5" y="1280" width="59" height="60" fill="white"/>
<rect x="1200.5" y="1280" width="59" height="60" fill="white"/>
<rect x="1260.5" y="1280" width="59" height="60" fill="white"/>
<rect x="1320.5" y="1280" width="59" height="60" fill="white"/>
<rect x="1380.5" y="1280" width="59" height="60" fill="white"/>
<rect x="0.5" y="1341" width="59" height="60" fill="white"/>
<rect x="60.5" y="1341" width="59" height="60" fill="white"/>
<rect x="120.5" y="1341" width="59" height="60" fill="white"/>
<rect x="180.5" y="1341" width="59" height="60" fill="white"/>
<rect x="240.5" y="1341" width="59" height="60" fill="white"/>
<rect x="300.5" y="1341" width="59" height="60" fill="white"/>
<rect x="360.5" y="1341" width="59" height="60" fill="white"/>
<rect x="420.5" y="1341" width="59" height="60" fill="white"/>
<rect x="480.5" y="1341" width="59" height="60" fill="white"/>
<rect x="540.5" y="1341" width="59" height="60" fill="white"/>
<rect x="600.5" y="1341" width="59" height="60" fill="white"/>
<rect x="660.5" y="1341" width="59" height="60" fill="white"/>
<rect x="720.5" y="1341" width="59" height="60" fill="white"/>
<rect x="780.5" y="1341" width="59" height="60" fill="white"/>
<rect x="840.5" y="1341" width="59" height="60" fill="white"/>
<rect x="900.5" y="1341" width="59" height="60" fill="white"/>
<rect x="960.5" y="1341" width="59" height="60" fill="white"/>
<rect x="1020.5" y="1341" width="59" height="60" fill="white"/>
<rect x="1080.5" y="1341" width="59" height="60" fill="white"/>
<rect x="1140.5" y="1341" width="59" height="60" fill="white"/>
<rect x="1200.5" y="1341" width="59" height="60" fill="white"/>
<rect x="1260.5" y="1341" width="59" height="60" fill="white"/>
<rect x="1320.5" y="1341" width="59" height="60" fill="white"/>
<rect x="1380.5" y="1341" width="59" height="60" fill="white"/>
<rect x="0.5" y="1402" width="59" height="60" fill="white"/>
<rect x="60.5" y="1402" width="59" height="60" fill="white"/>
<rect x="120.5" y="1402" width="59" height="60" fill="white"/>
<rect x="180.5" y="1402" width="59" height="60" fill="white"/>
<rect x="240.5" y="1402" width="59" height="60" fill="white"/>
<rect x="300.5" y="1402" width="59" height="60" fill="white"/>
<rect x="360.5" y="1402" width="59" height="60" fill="white"/>
<rect x="420.5" y="1402" width="59" height="60" fill="white"/>
<rect x="480.5" y="1402" width="59" height="60" fill="white"/>
<rect x="540.5" y="1402" width="59" height="60" fill="white"/>
<rect x="600.5" y="1402" width="59" height="60" fill="white"/>
<rect x="660.5" y="1402" width="59" height="60" fill="white"/>
<rect x="720.5" y="1402" width="59" height="60" fill="white"/>
<rect x="780.5" y="1402" width="59" height="60" fill="white"/>
<rect x="840.5" y="1402" width="59" height="60" fill="white"/>
<rect x="900.5" y="1402" width="59" height="60" fill="white"/>
<rect x="960.5" y="1402" width="59" height="60" fill="white"/>
<rect x="1020.5" y="1402" width="59" height="60" fill="white"/>
<rect x="1080.5" y="1402" width="59" height="60" fill="white"/>
<rect x="1140.5" y="1402" width="59" height="60" fill="white"/>
<rect x="1200.5" y="1402" width="59" height="60" fill="white"/>
<rect x="1260.5" y="1402" width="59" height="60" fill="white"/>
<rect x="1320.5" y="1402" width="59" height="60" fill="white"/>
<rect x="1380.5" y="1402" width="59" height="60" fill="white"/>
</g>
<defs>
<clipPath id="clip0_1316_32054">
<rect width="1440" height="1461" fill="white"/>
</clipPath>
</defs>
</svg>
